<svg xmlns="http://www.w3.org/2000/svg" xmlns:xlink="http://www.w3.org/1999/xlink" contentStyleType="text/css" height="1308px" preserveAspectRatio="none" style="width:1359px;height:1308px;background:#FFFFFF;" version="1.1" viewBox="0 0 1359 1308" width="1359px" zoomAndPan="magnify"><defs/><g><rect fill="#FFFFFF" height="31.291" style="stroke:#181818;stroke-width:1.0;" width="10" x="72.6758" y="251.0762"/><rect fill="#FFFFFF" height="93.873" style="stroke:#181818;stroke-width:1.0;" width="10" x="164.248" y="219.7852"/><rect fill="#FFFFFF" height="1054.3613" style="stroke:#181818;stroke-width:1.0;" width="10" x="277.7271" y="162.2031"/><rect fill="#FFFFFF" height="864.6152" style="stroke:#181818;stroke-width:1.0;" width="10" x="507.4194" y="351.9492"/><rect fill="#FFFFFF" height="138.1641" style="stroke:#181818;stroke-width:1.0;" width="10" x="675.8184" y="756.4414"/><rect fill="#FFFFFF" height="660.1602" style="stroke:#181818;stroke-width:1.0;" width="10" x="841.4316" y="427.5313"/><rect fill="#FFFFFF" height="566.2871" style="stroke:#181818;stroke-width:1.0;" width="10" x="1049.5732" y="458.8223"/><rect fill="#FFFFFF" height="75.582" style="stroke:#181818;stroke-width:1.0;" width="10" x="1146.2349" y="787.7324"/><rect fill="#FFFFFF" height="503.7051" style="stroke:#181818;stroke-width:1.0;" width="10" x="1281.2266" y="490.1133"/><rect fill="none" height="144.4551" style="stroke:#000000;stroke-width:1.5;" width="301.1924" x="40.5586" y="177.2031"/><rect fill="none" height="672.1602" style="stroke:#000000;stroke-width:1.5;" width="1010.4307" x="331.751" y="505.1133"/><rect fill="none" height="188.7461" style="stroke:#000000;stroke-width:1.5;" width="812.9243" x="435.8887" y="713.8594"/><line style="stroke:#181818;stroke-width:0.5;stroke-dasharray:5.0,5.0;" x1="22" x2="22" y1="83.6211" y2="1225.5645"/><line style="stroke:#181818;stroke-width:0.5;stroke-dasharray:5.0,5.0;" x1="77.5586" x2="77.5586" y1="83.6211" y2="1225.5645"/><line style="stroke:#181818;stroke-width:0.5;stroke-dasharray:5.0,5.0;" x1="168.793" x2="168.793" y1="83.6211" y2="1225.5645"/><line style="stroke:#181818;stroke-width:0.5;stroke-dasharray:5.0,5.0;" x1="282.7031" x2="282.7031" y1="83.6211" y2="1225.5645"/><line style="stroke:#181818;stroke-width:0.5;stroke-dasharray:5.0,5.0;" x1="388.751" x2="388.751" y1="83.6211" y2="1225.5645"/><line style="stroke:#181818;stroke-width:0.5;stroke-dasharray:5.0,5.0;" x1="511.8887" x2="511.8887" y1="83.6211" y2="1225.5645"/><line style="stroke:#181818;stroke-width:0.5;stroke-dasharray:5.0,5.0;" x1="680.0669" x2="680.0669" y1="83.6211" y2="1225.5645"/><line style="stroke:#181818;stroke-width:0.5;stroke-dasharray:5.0,5.0;" x1="845.5698" x2="845.5698" y1="83.6211" y2="1225.5645"/><line style="stroke:#181818;stroke-width:0.5;stroke-dasharray:5.0,5.0;" x1="1054.2148" x2="1054.2148" y1="83.6211" y2="1225.5645"/><line style="stroke:#181818;stroke-width:0.5;stroke-dasharray:5.0,5.0;" x1="1150.9316" x2="1150.9316" y1="83.6211" y2="1225.5645"/><line style="stroke:#181818;stroke-width:0.5;stroke-dasharray:5.0,5.0;" x1="1285.2715" x2="1285.2715" y1="83.6211" y2="1225.5645"/><text fill="#000000" font-family="sans-serif" font-size="14" lengthAdjust="spacing" textLength="29.5586" x="5" y="80.1074">User</text><ellipse cx="22.7793" cy="13.5" fill="#E2E2F0" rx="8" ry="8" style="stroke:#181818;stroke-width:0.5;"/><path d="M22.7793,21.5 L22.7793,48.5 M9.7793,29.5 L35.7793,29.5 M22.7793,48.5 L9.7793,63.5 M22.7793,48.5 L35.7793,63.5 " fill="none" style="stroke:#181818;stroke-width:0.5;"/><text fill="#000000" font-family="sans-serif" font-size="14" lengthAdjust="spacing" textLength="29.5586" x="5" y="1239.6719">User</text><ellipse cx="22.7793" cy="1251.6855" fill="#E2E2F0" rx="8" ry="8" style="stroke:#181818;stroke-width:0.5;"/><path d="M22.7793,1259.6855 L22.7793,1286.6855 M9.7793,1267.6855 L35.7793,1267.6855 M22.7793,1286.6855 L9.7793,1301.6855 M22.7793,1286.6855 L35.7793,1301.6855 " fill="none" style="stroke:#181818;stroke-width:0.5;"/><text fill="#000000" font-family="sans-serif" font-size="14" lengthAdjust="spacing" textLength="48.2344" x="50.5586" y="80.1074">TRData</text><ellipse cx="77.6758" cy="49" fill="#E2E2F0" rx="12" ry="12" style="stroke:#181818;stroke-width:0.5;"/><line style="stroke:#181818;stroke-width:0.5;" x1="65.6758" x2="89.6758" y1="63" y2="63"/><text fill="#000000" font-family="sans-serif" font-size="14" lengthAdjust="spacing" textLength="48.2344" x="50.5586" y="1239.6719">TRData</text><ellipse cx="77.6758" cy="1259.1855" fill="#E2E2F0" rx="12" ry="12" style="stroke:#181818;stroke-width:0.5;"/><line style="stroke:#181818;stroke-width:0.5;" x1="65.6758" x2="89.6758" y1="1273.1855" y2="1273.1855"/><rect fill="#9ACD32" height="32.6211" rx="2.5" ry="2.5" style="stroke:#181818;stroke-width:0.5;" width="108.9102" x="114.793" y="50"/><text fill="#000000" font-family="sans-serif" font-size="14" lengthAdjust="spacing" textLength="94.9102" x="121.793" y="72.1074">TRDataFactory</text><rect fill="#9ACD32" height="32.6211" rx="2.5" ry="2.5" style="stroke:#181818;stroke-width:0.5;" width="108.9102" x="114.793" y="1224.5645"/><text fill="#000000" font-family="sans-serif" font-size="14" lengthAdjust="spacing" textLength="94.9102" x="121.793" y="1246.6719">TRDataFactory</text><rect fill="#FF0000" height="32.6211" rx="2.5" ry="2.5" style="stroke:#181818;stroke-width:0.5;" width="98.0479" x="233.7031" y="50"/><text fill="#000000" font-family="sans-serif" font-size="14" lengthAdjust="spacing" textLength="84.0479" x="240.7031" y="72.1074">DataInterface</text><rect fill="#FF0000" height="32.6211" rx="2.5" ry="2.5" style="stroke:#181818;stroke-width:0.5;" width="98.0479" x="233.7031" y="1224.5645"/><text fill="#000000" font-family="sans-serif" font-size="14" lengthAdjust="spacing" textLength="84.0479" x="240.7031" y="1246.6719">DataInterface</text><rect fill="#FF0000" height="32.6211" rx="2.5" ry="2.5" style="stroke:#181818;stroke-width:0.5;" width="94.1377" x="341.751" y="50"/><text fill="#000000" font-family="sans-serif" font-size="14" lengthAdjust="spacing" textLength="80.1377" x="348.751" y="72.1074">ErrorHandler</text><rect fill="#FF0000" height="32.6211" rx="2.5" ry="2.5" style="stroke:#181818;stroke-width:0.5;" width="94.1377" x="341.751" y="1224.5645"/><text fill="#000000" font-family="sans-serif" font-size="14" lengthAdjust="spacing" textLength="80.1377" x="348.751" y="1246.6719">ErrorHandler</text><rect fill="#FFA500" height="32.6211" rx="2.5" ry="2.5" style="stroke:#181818;stroke-width:0.5;" width="133.0615" x="445.8887" y="50"/><text fill="#000000" font-family="sans-serif" font-size="14" lengthAdjust="spacing" textLength="119.0615" x="452.8887" y="72.1074">DataSavingService</text><rect fill="#FFA500" height="32.6211" rx="2.5" ry="2.5" style="stroke:#181818;stroke-width:0.5;" width="133.0615" x="445.8887" y="1224.5645"/><text fill="#000000" font-family="sans-serif" font-size="14" lengthAdjust="spacing" textLength="119.0615" x="452.8887" y="1246.6719">DataSavingService</text><rect fill="#FFA500" height="32.6211" rx="2.5" ry="2.5" style="stroke:#181818;stroke-width:0.5;" width="159.5029" x="601.0669" y="50"/><text fill="#000000" font-family="sans-serif" font-size="14" lengthAdjust="spacing" textLength="145.5029" x="608.0669" y="72.1074">TAFDataSavingService</text><rect fill="#FFA500" height="32.6211" rx="2.5" ry="2.5" style="stroke:#181818;stroke-width:0.5;" width="159.5029" x="601.0669" y="1224.5645"/><text fill="#000000" font-family="sans-serif" font-size="14" lengthAdjust="spacing" textLength="145.5029" x="608.0669" y="1246.6719">TAFDataSavingService</text><rect fill="#FFA500" height="32.6211" rx="2.5" ry="2.5" style="stroke:#181818;stroke-width:0.5;" width="151.7236" x="770.5698" y="50"/><text fill="#000000" font-family="sans-serif" font-size="14" lengthAdjust="spacing" textLength="137.7236" x="777.5698" y="72.1074">TRDataSavingService</text><rect fill="#FFA500" height="32.6211" rx="2.5" ry="2.5" style="stroke:#181818;stroke-width:0.5;" width="151.7236" x="770.5698" y="1224.5645"/><text fill="#000000" font-family="sans-serif" font-size="14" lengthAdjust="spacing" textLength="137.7236" x="777.5698" y="1246.6719">TRDataSavingService</text><rect fill="#ADD8E6" height="32.6211" rx="2.5" ry="2.5" style="stroke:#181818;stroke-width:0.5;" width="88.7168" x="1010.2148" y="50"/><text fill="#000000" font-family="sans-serif" font-size="14" lengthAdjust="spacing" textLength="74.7168" x="1017.2148" y="72.1074">DataSender</text><rect fill="#ADD8E6" height="32.6211" rx="2.5" ry="2.5" style="stroke:#181818;stroke-width:0.5;" width="88.7168" x="1010.2148" y="1224.5645"/><text fill="#000000" font-family="sans-serif" font-size="14" lengthAdjust="spacing" textLength="74.7168" x="1017.2148" y="1246.6719">DataSender</text><text fill="#000000" font-family="sans-serif" font-size="14" lengthAdjust="spacing" textLength="78.6064" x="1108.9316" y="80.1074">DataStorage</text><path d="M1133.2349,29 C1133.2349,19 1151.2349,19 1151.2349,19 C1151.2349,19 1169.2349,19 1169.2349,29 L1169.2349,55 C1169.2349,65 1151.2349,65 1151.2349,65 C1151.2349,65 1133.2349,65 1133.2349,55 L1133.2349,29 " fill="#E2E2F0" style="stroke:#181818;stroke-width:1.5;"/><path d="M1133.2349,29 C1133.2349,39 1151.2349,39 1151.2349,39 C1151.2349,39 1169.2349,39 1169.2349,29 " fill="none" style="stroke:#181818;stroke-width:1.5;"/><text fill="#000000" font-family="sans-serif" font-size="14" lengthAdjust="spacing" textLength="78.6064" x="1108.9316" y="1239.6719">DataStorage</text><path d="M1133.2349,1253.1855 C1133.2349,1243.1855 1151.2349,1243.1855 1151.2349,1243.1855 C1151.2349,1243.1855 1169.2349,1243.1855 1169.2349,1253.1855 L1169.2349,1279.1855 C1169.2349,1289.1855 1151.2349,1289.1855 1151.2349,1289.1855 C1151.2349,1289.1855 1133.2349,1289.1855 1133.2349,1279.1855 L1133.2349,1253.1855 " fill="#E2E2F0" style="stroke:#181818;stroke-width:1.5;"/><path d="M1133.2349,1253.1855 C1133.2349,1263.1855 1151.2349,1263.1855 1151.2349,1263.1855 C1151.2349,1263.1855 1169.2349,1263.1855 1169.2349,1253.1855 " fill="none" style="stroke:#181818;stroke-width:1.5;"/><rect fill="#E2E2F0" height="32.6211" style="stroke:#181818;stroke-width:0.5;" width="87.9102" x="1244.2715" y="46"/><rect fill="#E2E2F0" height="32.6211" style="stroke:#181818;stroke-width:0.5;" width="87.9102" x="1240.2715" y="50"/><text fill="#000000" font-family="sans-serif" font-size="14" lengthAdjust="spacing" textLength="73.9102" x="1247.2715" y="72.1074">TestRailAPI</text><rect fill="#E2E2F0" height="32.6211" style="stroke:#181818;stroke-width:0.5;" width="87.9102" x="1244.2715" y="1224.5645"/><rect fill="#E2E2F0" height="32.6211" style="stroke:#181818;stroke-width:0.5;" width="87.9102" x="1240.2715" y="1228.5645"/><text fill="#000000" font-family="sans-serif" font-size="14" lengthAdjust="spacing" textLength="73.9102" x="1247.2715" y="1250.6719">TestRailAPI</text><rect fill="#FFFFFF" height="31.291" style="stroke:#181818;stroke-width:1.0;" width="10" x="72.6758" y="251.0762"/><rect fill="#FFFFFF" height="93.873" style="stroke:#181818;stroke-width:1.0;" width="10" x="164.248" y="219.7852"/><rect fill="#FFFFFF" height="1054.3613" style="stroke:#181818;stroke-width:1.0;" width="10" x="277.7271" y="162.2031"/><rect fill="#FFFFFF" height="864.6152" style="stroke:#181818;stroke-width:1.0;" width="10" x="507.4194" y="351.9492"/><rect fill="#FFFFFF" height="138.1641" style="stroke:#181818;stroke-width:1.0;" width="10" x="675.8184" y="756.4414"/><rect fill="#FFFFFF" height="660.1602" style="stroke:#181818;stroke-width:1.0;" width="10" x="841.4316" y="427.5313"/><rect fill="#FFFFFF" height="566.2871" style="stroke:#181818;stroke-width:1.0;" width="10" x="1049.5732" y="458.8223"/><rect fill="#FFFFFF" height="75.582" style="stroke:#181818;stroke-width:1.0;" width="10" x="1146.2349" y="787.7324"/><rect fill="#FFFFFF" height="503.7051" style="stroke:#181818;stroke-width:1.0;" width="10" x="1281.2266" y="490.1133"/><rect fill="#EEEEEE" height="3" style="stroke:#EEEEEE;stroke-width:1.0;" width="1352.1816" x="0" y="115.2666"/><line style="stroke:#000000;stroke-width:1.0;" x1="0" x2="1352.1816" y1="115.2666" y2="115.2666"/><line style="stroke:#000000;stroke-width:1.0;" x1="0" x2="1352.1816" y1="118.2666" y2="118.2666"/><rect fill="#EEEEEE" height="25.291" style="stroke:#000000;stroke-width:2.0;" width="205.4009" x="573.3904" y="103.6211"/><text fill="#000000" font-family="sans-serif" font-size="13" font-weight="bold" lengthAdjust="spacing" textLength="187.7891" x="579.3904" y="121.6494">Creating From TAF to TestRail</text><polygon fill="#181818" points="265.7271,158.2031,275.7271,162.2031,265.7271,166.2031,269.7271,162.2031" style="stroke:#181818;stroke-width:1.0;"/><line style="stroke:#181818;stroke-width:1.0;" x1="22.7793" x2="271.7271" y1="162.2031" y2="162.2031"/><text fill="#000000" font-family="sans-serif" font-size="13" lengthAdjust="spacing" textLength="43.3418" x="29.7793" y="156.9404">new(...)</text><path d="M40.5586,177.2031 L175.1431,177.2031 L175.1431,186.4941 L165.1431,196.4941 L40.5586,196.4941 L40.5586,177.2031 " fill="#EEEEEE" style="stroke:#000000;stroke-width:1.5;"/><rect fill="none" height="144.4551" style="stroke:#000000;stroke-width:1.5;" width="301.1924" x="40.5586" y="177.2031"/><text fill="#000000" font-family="sans-serif" font-size="13" font-weight="bold" lengthAdjust="spacing" textLength="89.5845" x="55.5586" y="192.2314">Create TRData</text><polygon fill="#181818" points="185.248,215.7852,175.248,219.7852,185.248,223.7852,181.248,219.7852" style="stroke:#181818;stroke-width:1.0;"/><line style="stroke:#181818;stroke-width:1.0;" x1="179.248" x2="276.7271" y1="219.7852" y2="219.7852"/><text fill="#000000" font-family="sans-serif" font-size="13" lengthAdjust="spacing" textLength="43.3418" x="191.248" y="214.5225">new(...)</text><polygon fill="#181818" points="93.6758,247.0762,83.6758,251.0762,93.6758,255.0762,89.6758,251.0762" style="stroke:#181818;stroke-width:1.0;"/><line style="stroke:#181818;stroke-width:1.0;" x1="87.6758" x2="163.248" y1="251.0762" y2="251.0762"/><text fill="#000000" font-family="sans-serif" font-size="13" lengthAdjust="spacing" textLength="43.3418" x="99.6758" y="245.8135">new(...)</text><polygon fill="#181818" points="152.248,278.3672,162.248,282.3672,152.248,286.3672,156.248,282.3672" style="stroke:#181818;stroke-width:1.0;"/><line style="stroke:#181818;stroke-width:1.0;stroke-dasharray:2.0,2.0;" x1="77.6758" x2="158.248" y1="282.3672" y2="282.3672"/><text fill="#000000" font-family="sans-serif" font-size="13" lengthAdjust="spacing" textLength="44.7891" x="84.6758" y="277.1045">TRData</text><polygon fill="#181818" points="265.7271,309.6582,275.7271,313.6582,265.7271,317.6582,269.7271,313.6582" style="stroke:#181818;stroke-width:1.0;"/><line style="stroke:#181818;stroke-width:1.0;stroke-dasharray:2.0,2.0;" x1="169.248" x2="271.7271" y1="313.6582" y2="313.6582"/><text fill="#000000" font-family="sans-serif" font-size="13" lengthAdjust="spacing" textLength="44.7891" x="176.248" y="308.3955">TRData</text><polygon fill="#181818" points="495.4194,347.9492,505.4194,351.9492,495.4194,355.9492,499.4194,351.9492" style="stroke:#181818;stroke-width:1.0;"/><line style="stroke:#181818;stroke-width:1.0;" x1="287.7271" x2="501.4194" y1="351.9492" y2="351.9492"/><text fill="#000000" font-family="sans-serif" font-size="13" lengthAdjust="spacing" textLength="108.3672" x="294.7271" y="346.6865">saveData(TRData)</text><line style="stroke:#181818;stroke-width:1.0;" x1="517.4194" x2="559.4194" y1="383.2402" y2="383.2402"/><line style="stroke:#181818;stroke-width:1.0;" x1="559.4194" x2="559.4194" y1="383.2402" y2="396.2402"/><line style="stroke:#181818;stroke-width:1.0;" x1="518.4194" x2="559.4194" y1="396.2402" y2="396.2402"/><polygon fill="#181818" points="528.4194,392.2402,518.4194,396.2402,528.4194,400.2402,524.4194,396.2402" style="stroke:#181818;stroke-width:1.0;"/><text fill="#000000" font-family="sans-serif" font-size="13" lengthAdjust="spacing" textLength="134.3989" x="524.4194" y="377.9775">setDataUnSaved(Data)</text><polygon fill="#181818" points="829.4316,423.5313,839.4316,427.5313,829.4316,431.5313,833.4316,427.5313" style="stroke:#181818;stroke-width:1.0;"/><line style="stroke:#181818;stroke-width:1.0;" x1="517.4194" x2="835.4316" y1="427.5313" y2="427.5313"/><text fill="#000000" font-family="sans-serif" font-size="13" lengthAdjust="spacing" textLength="108.3672" x="524.4194" y="422.2686">saveData(TRData)</text><polygon fill="#181818" points="1037.5732,454.8223,1047.5732,458.8223,1037.5732,462.8223,1041.5732,458.8223" style="stroke:#181818;stroke-width:1.0;"/><line style="stroke:#181818;stroke-width:1.0;" x1="851.4316" x2="1043.5732" y1="458.8223" y2="458.8223"/><text fill="#000000" font-family="sans-serif" font-size="13" lengthAdjust="spacing" textLength="81.6372" x="858.4316" y="453.5596">send(TRData)</text><polygon fill="#181818" points="1269.2266,486.1133,1279.2266,490.1133,1269.2266,494.1133,1273.2266,490.1133" style="stroke:#181818;stroke-width:1.0;"/><line style="stroke:#181818;stroke-width:1.0;" x1="1059.5732" x2="1275.2266" y1="490.1133" y2="490.1133"/><text fill="#000000" font-family="sans-serif" font-size="13" lengthAdjust="spacing" textLength="81.6372" x="1066.5732" y="484.8506">send(TRData)</text><path d="M331.751,505.1133 L391.9219,505.1133 L391.9219,514.4043 L381.9219,524.4043 L331.751,524.4043 L331.751,505.1133 " fill="#EEEEEE" style="stroke:#000000;stroke-width:1.5;"/><rect fill="none" height="672.1602" style="stroke:#000000;stroke-width:1.5;" width="1010.4307" x="331.751" y="505.1133"/><text fill="#000000" font-family="sans-serif" font-size="13" font-weight="bold" lengthAdjust="spacing" textLength="15.1709" x="346.751" y="520.1416">alt</text><text fill="#000000" font-family="sans-serif" font-size="11" font-weight="bold" lengthAdjust="spacing" textLength="51.9707" x="406.9219" y="518.9834">[Success]</text><polygon fill="#181818" points="1070.5732,543.6953,1060.5732,547.6953,1070.5732,551.6953,1066.5732,547.6953" style="stroke:#181818;stroke-width:1.0;"/><line style="stroke:#181818;stroke-width:1.0;stroke-dasharray:2.0,2.0;" x1="1064.5732" x2="1280.2266" y1="547.6953" y2="547.6953"/><text fill="#000000" font-family="sans-serif" font-size="13" lengthAdjust="spacing" textLength="197.6533" x="1076.5732" y="542.4326">success http code 200 + response</text><polygon fill="#181818" points="862.4316,574.9863,852.4316,578.9863,862.4316,582.9863,858.4316,578.9863" style="stroke:#181818;stroke-width:1.0;"/><line style="stroke:#181818;stroke-width:1.0;stroke-dasharray:2.0,2.0;" x1="856.4316" x2="1048.5732" y1="578.9863" y2="578.9863"/><text fill="#000000" font-family="sans-serif" font-size="13" lengthAdjust="spacing" textLength="157.8979" x="868.4316" y="573.7236">success code 0 + response</text><line style="stroke:#181818;stroke-width:1.0;" x1="851.4316" x2="893.4316" y1="610.2773" y2="610.2773"/><line style="stroke:#181818;stroke-width:1.0;" x1="893.4316" x2="893.4316" y1="610.2773" y2="623.2773"/><line style="stroke:#181818;stroke-width:1.0;" x1="852.4316" x2="893.4316" y1="623.2773" y2="623.2773"/><polygon fill="#181818" points="862.4316,619.2773,852.4316,623.2773,862.4316,627.2773,858.4316,623.2773" style="stroke:#181818;stroke-width:1.0;"/><text fill="#000000" font-family="sans-serif" font-size="13" lengthAdjust="spacing" textLength="174.1416" x="858.4316" y="605.0146">Update TRData with response</text><line style="stroke:#181818;stroke-width:1.0;" x1="851.4316" x2="893.4316" y1="654.5684" y2="654.5684"/><line style="stroke:#181818;stroke-width:1.0;" x1="893.4316" x2="893.4316" y1="654.5684" y2="667.5684"/><line style="stroke:#181818;stroke-width:1.0;" x1="852.4316" x2="893.4316" y1="667.5684" y2="667.5684"/><polygon fill="#181818" points="862.4316,663.5684,852.4316,667.5684,862.4316,671.5684,858.4316,667.5684" style="stroke:#181818;stroke-width:1.0;"/><text fill="#000000" font-family="sans-serif" font-size="13" lengthAdjust="spacing" textLength="124.979" x="858.4316" y="649.3057">setTRSaved(TRData)</text><polygon fill="#181818" points="528.4194,694.8594,518.4194,698.8594,528.4194,702.8594,524.4194,698.8594" style="stroke:#181818;stroke-width:1.0;"/><line style="stroke:#181818;stroke-width:1.0;stroke-dasharray:2.0,2.0;" x1="522.4194" x2="840.4316" y1="698.8594" y2="698.8594"/><text fill="#000000" font-family="sans-serif" font-size="13" lengthAdjust="spacing" textLength="149.208" x="534.4194" y="693.5967">success code 0 + TRData</text><path d="M435.8887,713.8594 L559.6567,713.8594 L559.6567,723.1504 L549.6567,733.1504 L435.8887,733.1504 L435.8887,713.8594 " fill="#EEEEEE" style="stroke:#000000;stroke-width:1.5;"/><rect fill="none" height="188.7461" style="stroke:#000000;stroke-width:1.5;" width="812.9243" x="435.8887" y="713.8594"/><text fill="#000000" font-family="sans-serif" font-size="13" font-weight="bold" lengthAdjust="spacing" textLength="78.7681" x="450.8887" y="728.8877">Save Locally</text><polygon fill="#181818" points="663.8184,752.4414,673.8184,756.4414,663.8184,760.4414,667.8184,756.4414" style="stroke:#181818;stroke-width:1.0;"/><line style="stroke:#181818;stroke-width:1.0;" x1="517.4194" x2="669.8184" y1="756.4414" y2="756.4414"/><text fill="#000000" font-family="sans-serif" font-size="13" lengthAdjust="spacing" textLength="91.0381" x="524.4194" y="751.1787">saveData(Data)</text><polygon fill="#181818" points="1134.2349,783.7324,1144.2349,787.7324,1134.2349,791.7324,1138.2349,787.7324" style="stroke:#181818;stroke-width:1.0;"/><line style="stroke:#181818;stroke-width:1.0;" x1="685.8184" x2="1140.2349" y1="787.7324" y2="787.7324"/><text fill="#000000" font-family="sans-serif" font-size="13" lengthAdjust="spacing" textLength="64.3081" x="692.8184" y="782.4697">send(Data)</text><line style="stroke:#181818;stroke-width:1.0;" x1="1156.2349" x2="1198.2349" y1="819.0234" y2="819.0234"/><line style="stroke:#181818;stroke-width:1.0;" x1="1198.2349" x2="1198.2349" y1="819.0234" y2="832.0234"/><line style="stroke:#181818;stroke-width:1.0;" x1="1157.2349" x2="1198.2349" y1="832.0234" y2="832.0234"/><polygon fill="#181818" points="1167.2349,828.0234,1157.2349,832.0234,1167.2349,836.0234,1163.2349,832.0234" style="stroke:#181818;stroke-width:1.0;"/><text fill="#000000" font-family="sans-serif" font-size="13" lengthAdjust="spacing" textLength="63.5781" x="1163.2349" y="813.7607">save(Data)</text><polygon fill="#181818" points="696.8184,859.3145,686.8184,863.3145,696.8184,867.3145,692.8184,863.3145" style="stroke:#181818;stroke-width:1.0;"/><line style="stroke:#181818;stroke-width:1.0;stroke-dasharray:2.0,2.0;" x1="690.8184" x2="1150.2349" y1="863.3145" y2="863.3145"/><text fill="#000000" font-family="sans-serif" font-size="13" lengthAdjust="spacing" textLength="27.46" x="702.8184" y="858.0518">Data</text><polygon fill="#181818" points="528.4194,890.6055,518.4194,894.6055,528.4194,898.6055,524.4194,894.6055" style="stroke:#181818;stroke-width:1.0;"/><line style="stroke:#181818;stroke-width:1.0;stroke-dasharray:2.0,2.0;" x1="522.4194" x2="679.8184" y1="894.6055" y2="894.6055"/><text fill="#000000" font-family="sans-serif" font-size="13" lengthAdjust="spacing" textLength="27.46" x="534.4194" y="889.3428">Data</text><line style="stroke:#181818;stroke-width:1.0;" x1="517.4194" x2="559.4194" y1="932.8965" y2="932.8965"/><line style="stroke:#181818;stroke-width:1.0;" x1="559.4194" x2="559.4194" y1="932.8965" y2="945.8965"/><line style="stroke:#181818;stroke-width:1.0;" x1="518.4194" x2="559.4194" y1="945.8965" y2="945.8965"/><polygon fill="#181818" points="528.4194,941.8965,518.4194,945.8965,528.4194,949.8965,524.4194,945.8965" style="stroke:#181818;stroke-width:1.0;"/><text fill="#000000" font-family="sans-serif" font-size="13" lengthAdjust="spacing" textLength="90.3208" x="524.4194" y="927.6338">setSaved(Data)</text><line style="stroke:#000000;stroke-width:1.0;stroke-dasharray:2.0,2.0;" x1="331.751" x2="1342.1816" y1="954.8965" y2="954.8965"/><text fill="#000000" font-family="sans-serif" font-size="11" font-weight="bold" lengthAdjust="spacing" textLength="34.2246" x="336.751" y="966.7666">[Error]</text><polygon fill="#181818" points="1070.5732,989.8184,1060.5732,993.8184,1070.5732,997.8184,1066.5732,993.8184" style="stroke:#181818;stroke-width:1.0;"/><line style="stroke:#181818;stroke-width:1.0;stroke-dasharray:2.0,2.0;" x1="1064.5732" x2="1285.2266" y1="993.8184" y2="993.8184"/><text fill="#000000" font-family="sans-serif" font-size="13" lengthAdjust="spacing" textLength="95.7417" x="1076.5732" y="988.5557">error + response</text><polygon fill="#181818" points="862.4316,1021.1094,852.4316,1025.1094,862.4316,1029.1094,858.4316,1025.1094" style="stroke:#181818;stroke-width:1.0;"/><line style="stroke:#181818;stroke-width:1.0;stroke-dasharray:2.0,2.0;" x1="856.4316" x2="1053.5732" y1="1025.1094" y2="1025.1094"/><text fill="#000000" font-family="sans-serif" font-size="13" lengthAdjust="spacing" textLength="95.7417" x="868.4316" y="1019.8467">error + response</text><polygon fill="#181818" points="399.8198,1052.4004,389.8198,1056.4004,399.8198,1060.4004,395.8198,1056.4004" style="stroke:#181818;stroke-width:1.0;"/><line style="stroke:#181818;stroke-width:1.0;" x1="393.8198" x2="840.4316" y1="1056.4004" y2="1056.4004"/><text fill="#000000" font-family="sans-serif" font-size="13" lengthAdjust="spacing" textLength="233.3716" x="405.8198" y="1051.1377">sendTRConnexionError(error, response)</text><polygon fill="#181818" points="528.4194,1083.6914,518.4194,1087.6914,528.4194,1091.6914,524.4194,1087.6914" style="stroke:#181818;stroke-width:1.0;"/><line style="stroke:#181818;stroke-width:1.0;stroke-dasharray:2.0,2.0;" x1="522.4194" x2="845.4316" y1="1087.6914" y2="1087.6914"/><text fill="#000000" font-family="sans-serif" font-size="13" lengthAdjust="spacing" textLength="87.0518" x="534.4194" y="1082.4287">error + TRData</text><path d="M465,1100.6914 L465,1127.6914 L559,1127.6914 L559,1110.6914 L549,1100.6914 L465,1100.6914 " fill="#FEFFDD" style="stroke:#181818;stroke-width:0.5;"/><path d="M549,1100.6914 L549,1110.6914 L559,1110.6914 L549,1100.6914 " fill="#FEFFDD" style="stroke:#181818;stroke-width:0.5;"/><text fill="#000000" font-family="sans-serif" font-size="13" lengthAdjust="spacing" textLength="73.709" x="471" y="1119.7197">Save Locally</text><line style="stroke:#181818;stroke-width:1.0;" x1="517.4194" x2="559.4194" y1="1156.2734" y2="1156.2734"/><line style="stroke:#181818;stroke-width:1.0;" x1="559.4194" x2="559.4194" y1="1156.2734" y2="1169.2734"/><line style="stroke:#181818;stroke-width:1.0;" x1="518.4194" x2="559.4194" y1="1169.2734" y2="1169.2734"/><polygon fill="#181818" points="528.4194,1165.2734,518.4194,1169.2734,528.4194,1173.2734,524.4194,1169.2734" style="stroke:#181818;stroke-width:1.0;"/><text fill="#000000" font-family="sans-serif" font-size="13" lengthAdjust="spacing" textLength="130.7871" x="524.4194" y="1151.0107">setLocallySaved(Data)</text><polygon fill="#181818" points="298.7271,1203.5645,288.7271,1207.5645,298.7271,1211.5645,294.7271,1207.5645" style="stroke:#181818;stroke-width:1.0;"/><line style="stroke:#181818;stroke-width:1.0;stroke-dasharray:2.0,2.0;" x1="292.7271" x2="506.4194" y1="1207.5645" y2="1207.5645"/><text fill="#000000" font-family="sans-serif" font-size="13" lengthAdjust="spacing" textLength="91.4063" x="304.7271" y="1202.3018">code  + TRData</text><!--SRC=[fLRBRXen5DtxAonbKQ8MYBf48bAK53LI5nMF3t0yjuCbOqyz1ihVruzvs3Cs8ShiiCyzzzod-RBNkgeNytd5YT370vzHUPZNyFS8WiAqOAHKv83CHwYM2kzgK0Y4Plg2j-iNeWcgYDACiihODqShXxtWkmjmBi-b0X0Hp89UXGRrXr30TmgAwFg7KbBz9ABWeCQtrdX3JaoK6r0dPWca8gA4MCdJwaRW-ZQSGu4eh2JEohr-uqT0XJbz8pNuQnCrCMPKSWvKCobgl8LQhmdZJxzVJHANI_oiW6ZZ2w-KF5YPMCiEXPTBP5ECfu-392smWFDaDflTkrAm4z4GGn0gbJnMtW6qrS7cYvaCTLocaDh2E_e8vkzYouxgFOxG64yJ2a9O0LUiEzU935qbQSCm9RJjFCh9k0iMk2OdiESJJp5CVGJtb353ZXQqFTu9Sm75fA5EcgUwywgkX052APPMcszfAqeKkJWTfb7eyLPQtzbvyx3z2TTuSwGKwjeND22OZkHu8BRx2LDP0Fx-y82_OWLrPUOAkiPk1UMJrJ0vaX559ZLfgbrLz3d6PwRtdo0pNR1T-mveyvRbo3NICBHs0XoJNmVM0_ubAU6ycU4kSoETgPqPT5jJt9QZBtB2heSbMTk0_CPi-oVd85okSGYD_PZEQ1xIHGRvSFiTCjWZIHNfw3Brob8dCsWnRbjb2vPfgsYj8E3cUN9FAdf_xC3YXZCI2WsVivj7SCIAKgbjjioLGOh-6FYUsQwVfH3mpposxdRYV7thNDsZ3qzLgpRzdFZVGXhLycHaf1YYcVjezHgxi8Yk2_81X6-WMmMz-Fy0]--></g></svg>