<svg xmlns="http://www.w3.org/2000/svg" xmlns:xlink="http://www.w3.org/1999/xlink" contentStyleType="text/css" height="588px" preserveAspectRatio="none" style="width:889px;height:588px;background:#FFFFFF;" version="1.1" viewBox="0 0 889 588" width="889px" zoomAndPan="magnify"><defs/><g><!--class ExportServiceInterface--><g id="elem_ExportServiceInterface"><rect codeLine="3" fill="#F1F1F1" height="66.6211" id="ExportServiceInterface" rx="2.5" ry="2.5" style="stroke:#181818;stroke-width:0.5;" width="173.6201" x="709" y="261"/><ellipse cx="724" cy="277" fill="#B4A7E5" rx="11" ry="11" style="stroke:#181818;stroke-width:1.0;"/><path d="M724.9531,273.6406 L724.9531,280.2969 L726.6719,280.2969 Q727.2813,280.2969 727.5469,280.5313 Q727.8125,280.7656 727.8125,281.1563 Q727.8125,281.5313 727.5469,281.7656 Q727.2813,282 726.6719,282 L721.5313,282 Q720.9219,282 720.6563,281.7656 Q720.3906,281.5313 720.3906,281.1406 Q720.3906,280.7656 720.6563,280.5313 Q720.9219,280.2969 721.5313,280.2969 L723.25,280.2969 L723.25,273.6406 L721.5313,273.6406 Q720.9219,273.6406 720.6563,273.4063 Q720.3906,273.1719 720.3906,272.7813 Q720.3906,272.4063 720.6563,272.1719 Q720.9219,271.9375 721.5313,271.9375 L726.6719,271.9375 Q727.2813,271.9375 727.5469,272.1719 Q727.8125,272.4063 727.8125,272.7813 Q727.8125,273.1719 727.5469,273.4063 Q727.2813,273.6406 726.6719,273.6406 L724.9531,273.6406 Z " fill="#000000"/><text fill="#000000" font-family="sans-serif" font-size="14" font-style="italic" lengthAdjust="spacing" textLength="141.6201" x="738" y="282.7969">ExportServiceInterface</text><line style="stroke:#181818;stroke-width:0.5;" x1="710" x2="881.6201" y1="293" y2="293"/><line style="stroke:#181818;stroke-width:0.5;" x1="710" x2="881.6201" y1="301" y2="301"/><ellipse cx="720" cy="315.8105" fill="#84BE84" rx="3" ry="3" style="stroke:#038048;stroke-width:1.0;"/><text fill="#000000" font-family="sans-serif" font-size="14" lengthAdjust="spacing" textLength="77.8066" x="729" y="320.1074">exportData()</text></g><!--class ExportService--><g id="elem_ExportService"><rect codeLine="7" fill="#F1F1F1" height="66.6211" id="ExportService" rx="2.5" ry="2.5" style="stroke:#181818;stroke-width:0.5;" width="119.1445" x="549.5" y="388"/><ellipse cx="564.5" cy="404" fill="#ADD1B2" rx="11" ry="11" style="stroke:#181818;stroke-width:1.0;"/><path d="M567.2656,399.875 Q567.4219,399.6563 567.6094,399.5469 Q567.7969,399.4375 568.0156,399.4375 Q568.3906,399.4375 568.625,399.7031 Q568.8594,399.9531 568.8594,400.5625 L568.8594,402.0156 Q568.8594,402.625 568.625,402.8906 Q568.3906,403.1563 568.0156,403.1563 Q567.6719,403.1563 567.4688,402.9531 Q567.2656,402.7656 567.1563,402.25 Q567.1094,401.8906 566.9219,401.7031 Q566.5938,401.3281 565.9844,401.1094 Q565.375,400.8906 564.75,400.8906 Q563.9844,400.8906 563.3438,401.2188 Q562.7188,401.5469 562.2188,402.2969 Q561.7344,403.0469 561.7344,404.0781 L561.7344,405.1719 Q561.7344,406.4063 562.625,407.2344 Q563.5156,408.0469 565.1094,408.0469 Q566.0469,408.0469 566.7031,407.7969 Q567.0938,407.6406 567.5156,407.2031 Q567.7813,406.9375 567.9219,406.8594 Q568.0781,406.7813 568.2813,406.7813 Q568.6094,406.7813 568.8594,407.0469 Q569.125,407.2969 569.125,407.6406 Q569.125,407.9844 568.7813,408.3906 Q568.2813,408.9688 567.4844,409.2969 Q566.4063,409.75 565.1094,409.75 Q563.5938,409.75 562.3906,409.125 Q561.4063,408.625 560.7188,407.5625 Q560.0313,406.4844 560.0313,405.2031 L560.0313,404.0469 Q560.0313,402.7188 560.6406,401.5781 Q561.2656,400.4219 562.3594,399.8125 Q563.4531,399.1875 564.6875,399.1875 Q565.4219,399.1875 566.0625,399.3594 Q566.7188,399.5156 567.2656,399.875 Z " fill="#000000"/><text fill="#000000" font-family="sans-serif" font-size="14" lengthAdjust="spacing" textLength="87.1445" x="578.5" y="409.7969">ExportService</text><line style="stroke:#181818;stroke-width:0.5;" x1="550.5" x2="667.6445" y1="420" y2="420"/><line style="stroke:#181818;stroke-width:0.5;" x1="550.5" x2="667.6445" y1="428" y2="428"/><ellipse cx="560.5" cy="442.8105" fill="#84BE84" rx="3" ry="3" style="stroke:#038048;stroke-width:1.0;"/><text fill="#000000" font-family="sans-serif" font-size="14" lengthAdjust="spacing" textLength="77.8066" x="569.5" y="447.1074">exportData()</text></g><!--class XCollector--><g id="elem_XCollector"><rect codeLine="43" fill="#F1F1F1" height="66.6211" id="XCollector" rx="2.5" ry="2.5" style="stroke:#181818;stroke-width:0.5;" width="104.5791" x="55.5" y="261"/><ellipse cx="74.1" cy="277" fill="#ADD1B2" rx="11" ry="11" style="stroke:#181818;stroke-width:1.0;"/><path d="M76.8656,272.875 Q77.0219,272.6563 77.2094,272.5469 Q77.3969,272.4375 77.6156,272.4375 Q77.9906,272.4375 78.225,272.7031 Q78.4594,272.9531 78.4594,273.5625 L78.4594,275.0156 Q78.4594,275.625 78.225,275.8906 Q77.9906,276.1563 77.6156,276.1563 Q77.2719,276.1563 77.0688,275.9531 Q76.8656,275.7656 76.7563,275.25 Q76.7094,274.8906 76.5219,274.7031 Q76.1938,274.3281 75.5844,274.1094 Q74.975,273.8906 74.35,273.8906 Q73.5844,273.8906 72.9438,274.2188 Q72.3188,274.5469 71.8188,275.2969 Q71.3344,276.0469 71.3344,277.0781 L71.3344,278.1719 Q71.3344,279.4063 72.225,280.2344 Q73.1156,281.0469 74.7094,281.0469 Q75.6469,281.0469 76.3031,280.7969 Q76.6938,280.6406 77.1156,280.2031 Q77.3813,279.9375 77.5219,279.8594 Q77.6781,279.7813 77.8813,279.7813 Q78.2094,279.7813 78.4594,280.0469 Q78.725,280.2969 78.725,280.6406 Q78.725,280.9844 78.3813,281.3906 Q77.8813,281.9688 77.0844,282.2969 Q76.0063,282.75 74.7094,282.75 Q73.1938,282.75 71.9906,282.125 Q71.0063,281.625 70.3188,280.5625 Q69.6313,279.4844 69.6313,278.2031 L69.6313,277.0469 Q69.6313,275.7188 70.2406,274.5781 Q70.8656,273.4219 71.9594,272.8125 Q73.0531,272.1875 74.2875,272.1875 Q75.0219,272.1875 75.6625,272.3594 Q76.3188,272.5156 76.8656,272.875 Z " fill="#000000"/><text fill="#000000" font-family="sans-serif" font-size="14" lengthAdjust="spacing" textLength="64.5791" x="88.9" y="282.7969">XCollector</text><line style="stroke:#181818;stroke-width:0.5;" x1="56.5" x2="159.0791" y1="293" y2="293"/><line style="stroke:#181818;stroke-width:0.5;" x1="56.5" x2="159.0791" y1="301" y2="301"/><ellipse cx="66.5" cy="315.8105" fill="#84BE84" rx="3" ry="3" style="stroke:#038048;stroke-width:1.0;"/><text fill="#000000" font-family="sans-serif" font-size="14" lengthAdjust="spacing" textLength="78.5791" x="75.5" y="320.1074">collectData()</text></g><!--class JmeterCollector--><g id="elem_JmeterCollector"><rect codeLine="31" fill="#F1F1F1" height="66.6211" id="JmeterCollector" rx="2.5" ry="2.5" style="stroke:#181818;stroke-width:0.5;" width="130.0273" x="544" y="261"/><ellipse cx="559" cy="277" fill="#ADD1B2" rx="11" ry="11" style="stroke:#181818;stroke-width:1.0;"/><path d="M561.7656,272.875 Q561.9219,272.6563 562.1094,272.5469 Q562.2969,272.4375 562.5156,272.4375 Q562.8906,272.4375 563.125,272.7031 Q563.3594,272.9531 563.3594,273.5625 L563.3594,275.0156 Q563.3594,275.625 563.125,275.8906 Q562.8906,276.1563 562.5156,276.1563 Q562.1719,276.1563 561.9688,275.9531 Q561.7656,275.7656 561.6563,275.25 Q561.6094,274.8906 561.4219,274.7031 Q561.0938,274.3281 560.4844,274.1094 Q559.875,273.8906 559.25,273.8906 Q558.4844,273.8906 557.8438,274.2188 Q557.2188,274.5469 556.7188,275.2969 Q556.2344,276.0469 556.2344,277.0781 L556.2344,278.1719 Q556.2344,279.4063 557.125,280.2344 Q558.0156,281.0469 559.6094,281.0469 Q560.5469,281.0469 561.2031,280.7969 Q561.5938,280.6406 562.0156,280.2031 Q562.2813,279.9375 562.4219,279.8594 Q562.5781,279.7813 562.7813,279.7813 Q563.1094,279.7813 563.3594,280.0469 Q563.625,280.2969 563.625,280.6406 Q563.625,280.9844 563.2813,281.3906 Q562.7813,281.9688 561.9844,282.2969 Q560.9063,282.75 559.6094,282.75 Q558.0938,282.75 556.8906,282.125 Q555.9063,281.625 555.2188,280.5625 Q554.5313,279.4844 554.5313,278.2031 L554.5313,277.0469 Q554.5313,275.7188 555.1406,274.5781 Q555.7656,273.4219 556.8594,272.8125 Q557.9531,272.1875 559.1875,272.1875 Q559.9219,272.1875 560.5625,272.3594 Q561.2188,272.5156 561.7656,272.875 Z " fill="#000000"/><text fill="#000000" font-family="sans-serif" font-size="14" lengthAdjust="spacing" textLength="98.0273" x="573" y="282.7969">JmeterCollector</text><line style="stroke:#181818;stroke-width:0.5;" x1="545" x2="673.0273" y1="293" y2="293"/><line style="stroke:#181818;stroke-width:0.5;" x1="545" x2="673.0273" y1="301" y2="301"/><ellipse cx="555" cy="315.8105" fill="#84BE84" rx="3" ry="3" style="stroke:#038048;stroke-width:1.0;"/><text fill="#000000" font-family="sans-serif" font-size="14" lengthAdjust="spacing" textLength="78.5791" x="564" y="320.1074">collectData()</text></g><!--class SeleniumCollector--><g id="elem_SeleniumCollector"><rect codeLine="35" fill="#F1F1F1" height="66.6211" id="SeleniumCollector" rx="2.5" ry="2.5" style="stroke:#181818;stroke-width:0.5;" width="145.6064" x="363" y="261"/><ellipse cx="378" cy="277" fill="#ADD1B2" rx="11" ry="11" style="stroke:#181818;stroke-width:1.0;"/><path d="M380.7656,272.875 Q380.9219,272.6563 381.1094,272.5469 Q381.2969,272.4375 381.5156,272.4375 Q381.8906,272.4375 382.125,272.7031 Q382.3594,272.9531 382.3594,273.5625 L382.3594,275.0156 Q382.3594,275.625 382.125,275.8906 Q381.8906,276.1563 381.5156,276.1563 Q381.1719,276.1563 380.9688,275.9531 Q380.7656,275.7656 380.6563,275.25 Q380.6094,274.8906 380.4219,274.7031 Q380.0938,274.3281 379.4844,274.1094 Q378.875,273.8906 378.25,273.8906 Q377.4844,273.8906 376.8438,274.2188 Q376.2188,274.5469 375.7188,275.2969 Q375.2344,276.0469 375.2344,277.0781 L375.2344,278.1719 Q375.2344,279.4063 376.125,280.2344 Q377.0156,281.0469 378.6094,281.0469 Q379.5469,281.0469 380.2031,280.7969 Q380.5938,280.6406 381.0156,280.2031 Q381.2813,279.9375 381.4219,279.8594 Q381.5781,279.7813 381.7813,279.7813 Q382.1094,279.7813 382.3594,280.0469 Q382.625,280.2969 382.625,280.6406 Q382.625,280.9844 382.2813,281.3906 Q381.7813,281.9688 380.9844,282.2969 Q379.9063,282.75 378.6094,282.75 Q377.0938,282.75 375.8906,282.125 Q374.9063,281.625 374.2188,280.5625 Q373.5313,279.4844 373.5313,278.2031 L373.5313,277.0469 Q373.5313,275.7188 374.1406,274.5781 Q374.7656,273.4219 375.8594,272.8125 Q376.9531,272.1875 378.1875,272.1875 Q378.9219,272.1875 379.5625,272.3594 Q380.2188,272.5156 380.7656,272.875 Z " fill="#000000"/><text fill="#000000" font-family="sans-serif" font-size="14" lengthAdjust="spacing" textLength="113.6064" x="392" y="282.7969">SeleniumCollector</text><line style="stroke:#181818;stroke-width:0.5;" x1="364" x2="507.6064" y1="293" y2="293"/><line style="stroke:#181818;stroke-width:0.5;" x1="364" x2="507.6064" y1="301" y2="301"/><ellipse cx="374" cy="315.8105" fill="#84BE84" rx="3" ry="3" style="stroke:#038048;stroke-width:1.0;"/><text fill="#000000" font-family="sans-serif" font-size="14" lengthAdjust="spacing" textLength="78.5791" x="383" y="320.1074">collectData()</text></g><!--class GatlingCollector--><g id="elem_GatlingCollector"><rect codeLine="39" fill="#F1F1F1" height="66.6211" id="GatlingCollector" rx="2.5" ry="2.5" style="stroke:#181818;stroke-width:0.5;" width="131.5996" x="196" y="261"/><ellipse cx="211" cy="277" fill="#ADD1B2" rx="11" ry="11" style="stroke:#181818;stroke-width:1.0;"/><path d="M213.7656,272.875 Q213.9219,272.6563 214.1094,272.5469 Q214.2969,272.4375 214.5156,272.4375 Q214.8906,272.4375 215.125,272.7031 Q215.3594,272.9531 215.3594,273.5625 L215.3594,275.0156 Q215.3594,275.625 215.125,275.8906 Q214.8906,276.1563 214.5156,276.1563 Q214.1719,276.1563 213.9688,275.9531 Q213.7656,275.7656 213.6563,275.25 Q213.6094,274.8906 213.4219,274.7031 Q213.0938,274.3281 212.4844,274.1094 Q211.875,273.8906 211.25,273.8906 Q210.4844,273.8906 209.8438,274.2188 Q209.2188,274.5469 208.7188,275.2969 Q208.2344,276.0469 208.2344,277.0781 L208.2344,278.1719 Q208.2344,279.4063 209.125,280.2344 Q210.0156,281.0469 211.6094,281.0469 Q212.5469,281.0469 213.2031,280.7969 Q213.5938,280.6406 214.0156,280.2031 Q214.2813,279.9375 214.4219,279.8594 Q214.5781,279.7813 214.7813,279.7813 Q215.1094,279.7813 215.3594,280.0469 Q215.625,280.2969 215.625,280.6406 Q215.625,280.9844 215.2813,281.3906 Q214.7813,281.9688 213.9844,282.2969 Q212.9063,282.75 211.6094,282.75 Q210.0938,282.75 208.8906,282.125 Q207.9063,281.625 207.2188,280.5625 Q206.5313,279.4844 206.5313,278.2031 L206.5313,277.0469 Q206.5313,275.7188 207.1406,274.5781 Q207.7656,273.4219 208.8594,272.8125 Q209.9531,272.1875 211.1875,272.1875 Q211.9219,272.1875 212.5625,272.3594 Q213.2188,272.5156 213.7656,272.875 Z " fill="#000000"/><text fill="#000000" font-family="sans-serif" font-size="14" lengthAdjust="spacing" textLength="99.5996" x="225" y="282.7969">GatlingCollector</text><line style="stroke:#181818;stroke-width:0.5;" x1="197" x2="326.5996" y1="293" y2="293"/><line style="stroke:#181818;stroke-width:0.5;" x1="197" x2="326.5996" y1="301" y2="301"/><ellipse cx="207" cy="315.8105" fill="#84BE84" rx="3" ry="3" style="stroke:#038048;stroke-width:1.0;"/><text fill="#000000" font-family="sans-serif" font-size="14" lengthAdjust="spacing" textLength="78.5791" x="216" y="320.1074">collectData()</text></g><!--class ExportA--><g id="elem_ExportA"><rect codeLine="16" fill="#F1F1F1" height="66.6211" id="ExportA" rx="2.5" ry="2.5" style="stroke:#181818;stroke-width:0.5;" width="103.8066" x="729" y="515"/><ellipse cx="753.9031" cy="531" fill="#ADD1B2" rx="11" ry="11" style="stroke:#181818;stroke-width:1.0;"/><path d="M756.6687,526.875 Q756.825,526.6563 757.0125,526.5469 Q757.2,526.4375 757.4187,526.4375 Q757.7937,526.4375 758.0281,526.7031 Q758.2625,526.9531 758.2625,527.5625 L758.2625,529.0156 Q758.2625,529.625 758.0281,529.8906 Q757.7937,530.1563 757.4187,530.1563 Q757.075,530.1563 756.8718,529.9531 Q756.6687,529.7656 756.5593,529.25 Q756.5125,528.8906 756.325,528.7031 Q755.9968,528.3281 755.3875,528.1094 Q754.7781,527.8906 754.1531,527.8906 Q753.3875,527.8906 752.7468,528.2188 Q752.1218,528.5469 751.6218,529.2969 Q751.1375,530.0469 751.1375,531.0781 L751.1375,532.1719 Q751.1375,533.4063 752.0281,534.2344 Q752.9187,535.0469 754.5125,535.0469 Q755.45,535.0469 756.1062,534.7969 Q756.4968,534.6406 756.9187,534.2031 Q757.1843,533.9375 757.325,533.8594 Q757.4812,533.7813 757.6843,533.7813 Q758.0125,533.7813 758.2625,534.0469 Q758.5281,534.2969 758.5281,534.6406 Q758.5281,534.9844 758.1843,535.3906 Q757.6843,535.9688 756.8875,536.2969 Q755.8093,536.75 754.5125,536.75 Q752.9968,536.75 751.7937,536.125 Q750.8093,535.625 750.1218,534.5625 Q749.4343,533.4844 749.4343,532.2031 L749.4343,531.0469 Q749.4343,529.7188 750.0437,528.5781 Q750.6687,527.4219 751.7625,526.8125 Q752.8562,526.1875 754.0906,526.1875 Q754.825,526.1875 755.4656,526.3594 Q756.1218,526.5156 756.6687,526.875 Z " fill="#000000"/><text fill="#000000" font-family="sans-serif" font-size="14" lengthAdjust="spacing" textLength="49.7998" x="770.1038" y="536.7969">ExportA</text><line style="stroke:#181818;stroke-width:0.5;" x1="730" x2="831.8066" y1="547" y2="547"/><line style="stroke:#181818;stroke-width:0.5;" x1="730" x2="831.8066" y1="555" y2="555"/><ellipse cx="740" cy="569.8105" fill="#84BE84" rx="3" ry="3" style="stroke:#038048;stroke-width:1.0;"/><text fill="#000000" font-family="sans-serif" font-size="14" lengthAdjust="spacing" textLength="77.8066" x="749" y="574.1074">exportData()</text></g><!--class ExportB--><g id="elem_ExportB"><rect codeLine="22" fill="#F1F1F1" height="66.6211" id="ExportB" rx="2.5" ry="2.5" style="stroke:#181818;stroke-width:0.5;" width="103.8066" x="579" y="515"/><ellipse cx="603.9031" cy="531" fill="#ADD1B2" rx="11" ry="11" style="stroke:#181818;stroke-width:1.0;"/><path d="M606.6687,526.875 Q606.825,526.6563 607.0125,526.5469 Q607.2,526.4375 607.4187,526.4375 Q607.7937,526.4375 608.0281,526.7031 Q608.2625,526.9531 608.2625,527.5625 L608.2625,529.0156 Q608.2625,529.625 608.0281,529.8906 Q607.7937,530.1563 607.4187,530.1563 Q607.075,530.1563 606.8718,529.9531 Q606.6687,529.7656 606.5593,529.25 Q606.5125,528.8906 606.325,528.7031 Q605.9968,528.3281 605.3875,528.1094 Q604.7781,527.8906 604.1531,527.8906 Q603.3875,527.8906 602.7468,528.2188 Q602.1218,528.5469 601.6218,529.2969 Q601.1375,530.0469 601.1375,531.0781 L601.1375,532.1719 Q601.1375,533.4063 602.0281,534.2344 Q602.9187,535.0469 604.5125,535.0469 Q605.45,535.0469 606.1062,534.7969 Q606.4968,534.6406 606.9187,534.2031 Q607.1843,533.9375 607.325,533.8594 Q607.4812,533.7813 607.6843,533.7813 Q608.0125,533.7813 608.2625,534.0469 Q608.5281,534.2969 608.5281,534.6406 Q608.5281,534.9844 608.1843,535.3906 Q607.6843,535.9688 606.8875,536.2969 Q605.8093,536.75 604.5125,536.75 Q602.9968,536.75 601.7937,536.125 Q600.8093,535.625 600.1218,534.5625 Q599.4343,533.4844 599.4343,532.2031 L599.4343,531.0469 Q599.4343,529.7188 600.0437,528.5781 Q600.6687,527.4219 601.7625,526.8125 Q602.8562,526.1875 604.0906,526.1875 Q604.825,526.1875 605.4656,526.3594 Q606.1218,526.5156 606.6687,526.875 Z " fill="#000000"/><text fill="#000000" font-family="sans-serif" font-size="14" lengthAdjust="spacing" textLength="49.7998" x="620.1038" y="536.7969">ExportB</text><line style="stroke:#181818;stroke-width:0.5;" x1="580" x2="681.8066" y1="547" y2="547"/><line style="stroke:#181818;stroke-width:0.5;" x1="580" x2="681.8066" y1="555" y2="555"/><ellipse cx="590" cy="569.8105" fill="#84BE84" rx="3" ry="3" style="stroke:#038048;stroke-width:1.0;"/><text fill="#000000" font-family="sans-serif" font-size="14" lengthAdjust="spacing" textLength="77.8066" x="599" y="574.1074">exportData()</text></g><!--class CollectData--><g id="elem_CollectData"><rect codeLine="27" fill="#F1F1F1" height="66.6211" id="CollectData" rx="2.5" ry="2.5" style="stroke:#181818;stroke-width:0.5;" width="104.5791" x="295.5" y="134"/><ellipse cx="310.5962" cy="150" fill="#B4A7E5" rx="11" ry="11" style="stroke:#181818;stroke-width:1.0;"/><path d="M311.5494,146.6406 L311.5494,153.2969 L313.2681,153.2969 Q313.8775,153.2969 314.1431,153.5313 Q314.4087,153.7656 314.4087,154.1563 Q314.4087,154.5313 314.1431,154.7656 Q313.8775,155 313.2681,155 L308.1275,155 Q307.5181,155 307.2525,154.7656 Q306.9869,154.5313 306.9869,154.1406 Q306.9869,153.7656 307.2525,153.5313 Q307.5181,153.2969 308.1275,153.2969 L309.8462,153.2969 L309.8462,146.6406 L308.1275,146.6406 Q307.5181,146.6406 307.2525,146.4063 Q306.9869,146.1719 306.9869,145.7813 Q306.9869,145.4063 307.2525,145.1719 Q307.5181,144.9375 308.1275,144.9375 L313.2681,144.9375 Q313.8775,144.9375 314.1431,145.1719 Q314.4087,145.4063 314.4087,145.7813 Q314.4087,146.1719 314.1431,146.4063 Q313.8775,146.6406 313.2681,146.6406 L311.5494,146.6406 Z " fill="#000000"/><text fill="#000000" font-family="sans-serif" font-size="14" font-style="italic" lengthAdjust="spacing" textLength="72.3652" x="324.6176" y="155.7969">CollectData</text><line style="stroke:#181818;stroke-width:0.5;" x1="296.5" x2="399.0791" y1="166" y2="166"/><line style="stroke:#181818;stroke-width:0.5;" x1="296.5" x2="399.0791" y1="174" y2="174"/><ellipse cx="306.5" cy="188.8105" fill="#84BE84" rx="3" ry="3" style="stroke:#038048;stroke-width:1.0;"/><text fill="#000000" font-family="sans-serif" font-size="14" lengthAdjust="spacing" textLength="78.5791" x="315.5" y="193.1074">collectData()</text></g><!--class ParseData--><g id="elem_ParseData"><rect codeLine="47" fill="#F1F1F1" height="66.6211" id="ParseData" rx="2.5" ry="2.5" style="stroke:#181818;stroke-width:0.5;" width="99.917" x="301" y="7"/><ellipse cx="316.7976" cy="23" fill="#B4A7E5" rx="11" ry="11" style="stroke:#181818;stroke-width:1.0;"/><path d="M317.7507,19.6406 L317.7507,26.2969 L319.4695,26.2969 Q320.0789,26.2969 320.3445,26.5313 Q320.6101,26.7656 320.6101,27.1563 Q320.6101,27.5313 320.3445,27.7656 Q320.0789,28 319.4695,28 L314.3289,28 Q313.7195,28 313.4539,27.7656 Q313.1882,27.5313 313.1882,27.1406 Q313.1882,26.7656 313.4539,26.5313 Q313.7195,26.2969 314.3289,26.2969 L316.0476,26.2969 L316.0476,19.6406 L314.3289,19.6406 Q313.7195,19.6406 313.4539,19.4063 Q313.1882,19.1719 313.1882,18.7813 Q313.1882,18.4063 313.4539,18.1719 Q313.7195,17.9375 314.3289,17.9375 L319.4695,17.9375 Q320.0789,17.9375 320.3445,18.1719 Q320.6101,18.4063 320.6101,18.7813 Q320.6101,19.1719 320.3445,19.4063 Q320.0789,19.6406 319.4695,19.6406 L317.7507,19.6406 Z " fill="#000000"/><text fill="#000000" font-family="sans-serif" font-size="14" font-style="italic" lengthAdjust="spacing" textLength="66.1445" x="330.9749" y="28.7969">ParseData</text><line style="stroke:#181818;stroke-width:0.5;" x1="302" x2="399.917" y1="39" y2="39"/><line style="stroke:#181818;stroke-width:0.5;" x1="302" x2="399.917" y1="47" y2="47"/><ellipse cx="312" cy="61.8105" fill="#84BE84" rx="3" ry="3" style="stroke:#038048;stroke-width:1.0;"/><text fill="#000000" font-family="sans-serif" font-size="14" lengthAdjust="spacing" textLength="73.917" x="321" y="66.1074">parseData()</text></g><!--class JmeterParser--><g id="elem_JmeterParser"><rect codeLine="52" fill="#F1F1F1" height="66.6211" id="JmeterParser" rx="2.5" ry="2.5" style="stroke:#181818;stroke-width:0.5;" width="116.0205" x="603" y="134"/><ellipse cx="618" cy="150" fill="#ADD1B2" rx="11" ry="11" style="stroke:#181818;stroke-width:1.0;"/><path d="M620.7656,145.875 Q620.9219,145.6563 621.1094,145.5469 Q621.2969,145.4375 621.5156,145.4375 Q621.8906,145.4375 622.125,145.7031 Q622.3594,145.9531 622.3594,146.5625 L622.3594,148.0156 Q622.3594,148.625 622.125,148.8906 Q621.8906,149.1563 621.5156,149.1563 Q621.1719,149.1563 620.9688,148.9531 Q620.7656,148.7656 620.6563,148.25 Q620.6094,147.8906 620.4219,147.7031 Q620.0938,147.3281 619.4844,147.1094 Q618.875,146.8906 618.25,146.8906 Q617.4844,146.8906 616.8438,147.2188 Q616.2188,147.5469 615.7188,148.2969 Q615.2344,149.0469 615.2344,150.0781 L615.2344,151.1719 Q615.2344,152.4063 616.125,153.2344 Q617.0156,154.0469 618.6094,154.0469 Q619.5469,154.0469 620.2031,153.7969 Q620.5938,153.6406 621.0156,153.2031 Q621.2813,152.9375 621.4219,152.8594 Q621.5781,152.7813 621.7813,152.7813 Q622.1094,152.7813 622.3594,153.0469 Q622.625,153.2969 622.625,153.6406 Q622.625,153.9844 622.2813,154.3906 Q621.7813,154.9688 620.9844,155.2969 Q619.9063,155.75 618.6094,155.75 Q617.0938,155.75 615.8906,155.125 Q614.9063,154.625 614.2188,153.5625 Q613.5313,152.4844 613.5313,151.2031 L613.5313,150.0469 Q613.5313,148.7188 614.1406,147.5781 Q614.7656,146.4219 615.8594,145.8125 Q616.9531,145.1875 618.1875,145.1875 Q618.9219,145.1875 619.5625,145.3594 Q620.2188,145.5156 620.7656,145.875 Z " fill="#000000"/><text fill="#000000" font-family="sans-serif" font-size="14" lengthAdjust="spacing" textLength="84.0205" x="632" y="155.7969">JmeterParser</text><line style="stroke:#181818;stroke-width:0.5;" x1="604" x2="718.0205" y1="166" y2="166"/><line style="stroke:#181818;stroke-width:0.5;" x1="604" x2="718.0205" y1="174" y2="174"/><ellipse cx="614" cy="188.8105" fill="#84BE84" rx="3" ry="3" style="stroke:#038048;stroke-width:1.0;"/><text fill="#000000" font-family="sans-serif" font-size="14" lengthAdjust="spacing" textLength="73.917" x="623" y="193.1074">parseData()</text></g><!--class SeleniumParser--><g id="elem_SeleniumParser"><rect codeLine="58" fill="#F1F1F1" height="66.6211" id="SeleniumParser" rx="2.5" ry="2.5" style="stroke:#181818;stroke-width:0.5;" width="131.5996" x="436" y="134"/><ellipse cx="451" cy="150" fill="#ADD1B2" rx="11" ry="11" style="stroke:#181818;stroke-width:1.0;"/><path d="M453.7656,145.875 Q453.9219,145.6563 454.1094,145.5469 Q454.2969,145.4375 454.5156,145.4375 Q454.8906,145.4375 455.125,145.7031 Q455.3594,145.9531 455.3594,146.5625 L455.3594,148.0156 Q455.3594,148.625 455.125,148.8906 Q454.8906,149.1563 454.5156,149.1563 Q454.1719,149.1563 453.9688,148.9531 Q453.7656,148.7656 453.6563,148.25 Q453.6094,147.8906 453.4219,147.7031 Q453.0938,147.3281 452.4844,147.1094 Q451.875,146.8906 451.25,146.8906 Q450.4844,146.8906 449.8438,147.2188 Q449.2188,147.5469 448.7188,148.2969 Q448.2344,149.0469 448.2344,150.0781 L448.2344,151.1719 Q448.2344,152.4063 449.125,153.2344 Q450.0156,154.0469 451.6094,154.0469 Q452.5469,154.0469 453.2031,153.7969 Q453.5938,153.6406 454.0156,153.2031 Q454.2813,152.9375 454.4219,152.8594 Q454.5781,152.7813 454.7813,152.7813 Q455.1094,152.7813 455.3594,153.0469 Q455.625,153.2969 455.625,153.6406 Q455.625,153.9844 455.2813,154.3906 Q454.7813,154.9688 453.9844,155.2969 Q452.9063,155.75 451.6094,155.75 Q450.0938,155.75 448.8906,155.125 Q447.9063,154.625 447.2188,153.5625 Q446.5313,152.4844 446.5313,151.2031 L446.5313,150.0469 Q446.5313,148.7188 447.1406,147.5781 Q447.7656,146.4219 448.8594,145.8125 Q449.9531,145.1875 451.1875,145.1875 Q451.9219,145.1875 452.5625,145.3594 Q453.2188,145.5156 453.7656,145.875 Z " fill="#000000"/><text fill="#000000" font-family="sans-serif" font-size="14" lengthAdjust="spacing" textLength="99.5996" x="465" y="155.7969">SeleniumParser</text><line style="stroke:#181818;stroke-width:0.5;" x1="437" x2="566.5996" y1="166" y2="166"/><line style="stroke:#181818;stroke-width:0.5;" x1="437" x2="566.5996" y1="174" y2="174"/><ellipse cx="447" cy="188.8105" fill="#84BE84" rx="3" ry="3" style="stroke:#038048;stroke-width:1.0;"/><text fill="#000000" font-family="sans-serif" font-size="14" lengthAdjust="spacing" textLength="73.917" x="456" y="193.1074">parseData()</text></g><!--class GatlingParser--><g id="elem_GatlingParser"><rect codeLine="64" fill="#F1F1F1" height="66.6211" id="GatlingParser" rx="2.5" ry="2.5" style="stroke:#181818;stroke-width:0.5;" width="117.5928" x="142" y="134"/><ellipse cx="157" cy="150" fill="#ADD1B2" rx="11" ry="11" style="stroke:#181818;stroke-width:1.0;"/><path d="M159.7656,145.875 Q159.9219,145.6563 160.1094,145.5469 Q160.2969,145.4375 160.5156,145.4375 Q160.8906,145.4375 161.125,145.7031 Q161.3594,145.9531 161.3594,146.5625 L161.3594,148.0156 Q161.3594,148.625 161.125,148.8906 Q160.8906,149.1563 160.5156,149.1563 Q160.1719,149.1563 159.9688,148.9531 Q159.7656,148.7656 159.6563,148.25 Q159.6094,147.8906 159.4219,147.7031 Q159.0938,147.3281 158.4844,147.1094 Q157.875,146.8906 157.25,146.8906 Q156.4844,146.8906 155.8438,147.2188 Q155.2188,147.5469 154.7188,148.2969 Q154.2344,149.0469 154.2344,150.0781 L154.2344,151.1719 Q154.2344,152.4063 155.125,153.2344 Q156.0156,154.0469 157.6094,154.0469 Q158.5469,154.0469 159.2031,153.7969 Q159.5938,153.6406 160.0156,153.2031 Q160.2813,152.9375 160.4219,152.8594 Q160.5781,152.7813 160.7813,152.7813 Q161.1094,152.7813 161.3594,153.0469 Q161.625,153.2969 161.625,153.6406 Q161.625,153.9844 161.2813,154.3906 Q160.7813,154.9688 159.9844,155.2969 Q158.9063,155.75 157.6094,155.75 Q156.0938,155.75 154.8906,155.125 Q153.9063,154.625 153.2188,153.5625 Q152.5313,152.4844 152.5313,151.2031 L152.5313,150.0469 Q152.5313,148.7188 153.1406,147.5781 Q153.7656,146.4219 154.8594,145.8125 Q155.9531,145.1875 157.1875,145.1875 Q157.9219,145.1875 158.5625,145.3594 Q159.2188,145.5156 159.7656,145.875 Z " fill="#000000"/><text fill="#000000" font-family="sans-serif" font-size="14" lengthAdjust="spacing" textLength="85.5928" x="171" y="155.7969">GatlingParser</text><line style="stroke:#181818;stroke-width:0.5;" x1="143" x2="258.5928" y1="166" y2="166"/><line style="stroke:#181818;stroke-width:0.5;" x1="143" x2="258.5928" y1="174" y2="174"/><ellipse cx="153" cy="188.8105" fill="#84BE84" rx="3" ry="3" style="stroke:#038048;stroke-width:1.0;"/><text fill="#000000" font-family="sans-serif" font-size="14" lengthAdjust="spacing" textLength="73.917" x="162" y="193.1074">parseData()</text></g><!--class XParser--><g id="elem_XParser"><rect codeLine="70" fill="#F1F1F1" height="66.6211" id="XParser" rx="2.5" ry="2.5" style="stroke:#181818;stroke-width:0.5;" width="99.917" x="7" y="134"/><ellipse cx="29.8051" cy="150" fill="#ADD1B2" rx="11" ry="11" style="stroke:#181818;stroke-width:1.0;"/><path d="M32.5708,145.875 Q32.727,145.6563 32.9145,145.5469 Q33.102,145.4375 33.3208,145.4375 Q33.6958,145.4375 33.9301,145.7031 Q34.1645,145.9531 34.1645,146.5625 L34.1645,148.0156 Q34.1645,148.625 33.9301,148.8906 Q33.6958,149.1563 33.3208,149.1563 Q32.977,149.1563 32.7739,148.9531 Q32.5708,148.7656 32.4614,148.25 Q32.4145,147.8906 32.227,147.7031 Q31.8989,147.3281 31.2895,147.1094 Q30.6801,146.8906 30.0551,146.8906 Q29.2895,146.8906 28.6489,147.2188 Q28.0239,147.5469 27.5239,148.2969 Q27.0395,149.0469 27.0395,150.0781 L27.0395,151.1719 Q27.0395,152.4063 27.9301,153.2344 Q28.8208,154.0469 30.4145,154.0469 Q31.352,154.0469 32.0083,153.7969 Q32.3989,153.6406 32.8208,153.2031 Q33.0864,152.9375 33.227,152.8594 Q33.3833,152.7813 33.5864,152.7813 Q33.9145,152.7813 34.1645,153.0469 Q34.4301,153.2969 34.4301,153.6406 Q34.4301,153.9844 34.0864,154.3906 Q33.5864,154.9688 32.7895,155.2969 Q31.7114,155.75 30.4145,155.75 Q28.8989,155.75 27.6958,155.125 Q26.7114,154.625 26.0239,153.5625 Q25.3364,152.4844 25.3364,151.2031 L25.3364,150.0469 Q25.3364,148.7188 25.9458,147.5781 Q26.5708,146.4219 27.6645,145.8125 Q28.7583,145.1875 29.9926,145.1875 Q30.727,145.1875 31.3676,145.3594 Q32.0239,145.5156 32.5708,145.875 Z " fill="#000000"/><text fill="#000000" font-family="sans-serif" font-size="14" lengthAdjust="spacing" textLength="50.5723" x="45.5396" y="155.7969">XParser</text><line style="stroke:#181818;stroke-width:0.5;" x1="8" x2="105.917" y1="166" y2="166"/><line style="stroke:#181818;stroke-width:0.5;" x1="8" x2="105.917" y1="174" y2="174"/><ellipse cx="18" cy="188.8105" fill="#84BE84" rx="3" ry="3" style="stroke:#038048;stroke-width:1.0;"/><text fill="#000000" font-family="sans-serif" font-size="14" lengthAdjust="spacing" textLength="73.917" x="27" y="193.1074">parseData()</text></g><!--reverse link ExportServiceInterface to ExportService--><g id="link_ExportServiceInterface_ExportService"><path d="M732.3931,338.0196 C704.7931,356.4596 685.33,369.47 657.72,387.93 " fill="none" id="ExportServiceInterface-backto-ExportService" style="stroke:#181818;stroke-width:1.0;stroke-dasharray:7.0,7.0;"/><polygon fill="none" points="747.36,328.02,729.0599,333.0307,735.7263,343.0086,747.36,328.02" style="stroke:#181818;stroke-width:1.0;"/></g><!--link XCollector to ExportService--><g id="link_XCollector_ExportService"><path codeLine="11" d="M160.62,321.44 C166.41,323.84 172.28,326.09 178,328 C307.18,371.24 453.2291,397.2479 537.4591,410.1879 " fill="none" id="XCollector-to-ExportService" style="stroke:#181818;stroke-width:1.0;"/><polygon fill="#181818" points="549.32,412.01,543.997,407.1453,537.4591,410.1879,542.7822,415.0525,549.32,412.01" style="stroke:#181818;stroke-width:1.0;"/></g><!--link JmeterCollector to ExportService--><g id="link_JmeterCollector_ExportService"><path codeLine="12" d="M609,328.02 C609,346.39 609,357.29 609,375.71 " fill="none" id="JmeterCollector-to-ExportService" style="stroke:#181818;stroke-width:1.0;"/><polygon fill="#181818" points="609,387.71,613,381.71,609,375.71,605,381.71,609,387.71" style="stroke:#181818;stroke-width:1.0;"/></g><!--link SeleniumCollector to ExportService--><g id="link_SeleniumCollector_ExportService"><path codeLine="13" d="M481,328.02 C506.53,346.46 528.6545,362.4405 554.1945,380.9005 " fill="none" id="SeleniumCollector-to-ExportService" style="stroke:#181818;stroke-width:1.0;"/><polygon fill="#181818" points="563.92,387.93,561.4004,381.1734,554.1945,380.9005,556.7141,387.6571,563.92,387.93" style="stroke:#181818;stroke-width:1.0;"/></g><!--link GatlingCollector to ExportService--><g id="link_GatlingCollector_ExportService"><path codeLine="14" d="M328.41,321.41 C334.35,323.66 340.28,325.89 346,328 C415.47,353.65 484.4939,377.7727 537.9239,396.1727 " fill="none" id="GatlingCollector-to-ExportService" style="stroke:#181818;stroke-width:1.0;"/><polygon fill="#181818" points="549.27,400.08,544.8994,394.3443,537.9239,396.1727,542.2945,401.9084,549.27,400.08" style="stroke:#181818;stroke-width:1.0;"/></g><!--reverse link ExportServiceInterface to ExportA--><g id="link_ExportServiceInterface_ExportA"><path d="M792.9832,346.1584 C790.1132,394.4984 785.82,466.56 782.94,514.87 " fill="none" id="ExportServiceInterface-backto-ExportA" style="stroke:#181818;stroke-width:1.0;stroke-dasharray:7.0,7.0;"/><polygon fill="none" points="794.05,328.19,786.9937,345.8028,798.9727,346.514,794.05,328.19" style="stroke:#181818;stroke-width:1.0;"/></g><!--reverse link ExportService to ExportA--><g id="link_ExportService_ExportA"><path codeLine="20" d="M663.4481,462.0735 C688.8281,480.5135 710.79,496.47 736.18,514.93 " fill="none" id="ExportService-backto-ExportA" style="stroke:#181818;stroke-width:1.0;"/><polygon fill="#181818" points="653.74,455.02,656.2429,461.7828,663.4481,462.0735,660.9452,455.3107,653.74,455.02" style="stroke:#181818;stroke-width:1.0;"/></g><!--reverse link ExportServiceInterface to ExportB--><g id="link_ExportServiceInterface_ExportB"><path d="M764.7401,343.2493 C733.0901,391.5893 683.99,466.56 652.36,514.87 " fill="none" id="ExportServiceInterface-backto-ExportB" style="stroke:#181818;stroke-width:1.0;stroke-dasharray:7.0,7.0;"/><polygon fill="none" points="774.6,328.19,759.7203,339.9627,769.7599,346.5359,774.6,328.19" style="stroke:#181818;stroke-width:1.0;"/></g><!--reverse link ExportService to ExportB--><g id="link_ExportService_ExportB"><path codeLine="25" d="M616.8043,466.8376 C620.0443,485.2076 621.99,496.29 625.23,514.71 " fill="none" id="ExportService-backto-ExportB" style="stroke:#181818;stroke-width:1.0;"/><polygon fill="#181818" points="614.72,455.02,611.823,461.6236,616.8043,466.8376,619.7014,460.234,614.72,455.02" style="stroke:#181818;stroke-width:1.0;"/></g><!--reverse link CollectData to JmeterCollector--><g id="link_CollectData_JmeterCollector"><path d="M416.7359,201.4215 C457.9759,221.1615 499.38,241 543.61,262.18 " fill="none" id="CollectData-backto-JmeterCollector" style="stroke:#181818;stroke-width:1.0;stroke-dasharray:7.0,7.0;"/><polygon fill="none" points="400.5,193.65,414.1454,206.8335,419.3264,196.0095,400.5,193.65" style="stroke:#181818;stroke-width:1.0;"/></g><!--reverse link CollectData to SeleniumCollector--><g id="link_CollectData_SeleniumCollector"><path d="M381.2558,215.7356 C394.1958,234.1056 399.95,242.29 412.92,260.71 " fill="none" id="CollectData-backto-SeleniumCollector" style="stroke:#181818;stroke-width:1.0;stroke-dasharray:7.0,7.0;"/><polygon fill="none" points="370.89,201.02,376.3506,219.1909,386.161,212.2804,370.89,201.02" style="stroke:#181818;stroke-width:1.0;"/></g><!--reverse link CollectData to GatlingCollector--><g id="link_CollectData_GatlingCollector"><path d="M315.4267,215.8487 C302.7867,234.2187 297.23,242.29 284.56,260.71 " fill="none" id="CollectData-backto-GatlingCollector" style="stroke:#181818;stroke-width:1.0;stroke-dasharray:7.0,7.0;"/><polygon fill="none" points="325.63,201.02,310.4837,212.4476,320.3696,219.2499,325.63,201.02" style="stroke:#181818;stroke-width:1.0;"/></g><!--reverse link CollectData to XCollector--><g id="link_CollectData_XCollector"><path d="M279.3658,204.2453 C239.3558,225.0853 200.53,245.31 160.55,266.13 " fill="none" id="CollectData-backto-XCollector" style="stroke:#181818;stroke-width:1.0;stroke-dasharray:7.0,7.0;"/><polygon fill="none" points="295.33,195.93,276.594,198.9239,282.1375,209.5667,295.33,195.93" style="stroke:#181818;stroke-width:1.0;"/></g><!--reverse link ParseData to JmeterParser--><g id="link_ParseData_JmeterParser"><path d="M417.9667,67.1508 C465.6767,85.5308 522.59,107.79 586,134 C591.51,136.28 597.23,138.68 602.94,141.11 " fill="none" id="ParseData-backto-JmeterParser" style="stroke:#181818;stroke-width:1.0;stroke-dasharray:7.0,7.0;"/><polygon fill="none" points="401.17,60.68,415.8097,72.7497,420.1236,61.5519,401.17,60.68" style="stroke:#181818;stroke-width:1.0;"/></g><!--link JmeterParser to JmeterCollector--><g id="link_JmeterParser_JmeterCollector"><path codeLine="56" d="M647.47,201.02 C639.83,219.39 634.9077,231.2099 627.2477,249.6299 " fill="none" id="JmeterParser-to-JmeterCollector" style="stroke:#181818;stroke-width:1.0;"/><polygon fill="#181818" points="622.64,260.71,628.6372,256.7058,627.2477,249.6299,621.2505,253.634,622.64,260.71" style="stroke:#181818;stroke-width:1.0;"/></g><!--reverse link ParseData to SeleniumParser--><g id="link_ParseData_SeleniumParser"><path d="M404.1467,85.4967 C426.4267,103.9367 440.36,115.47 462.66,133.93 " fill="none" id="ParseData-backto-SeleniumParser" style="stroke:#181818;stroke-width:1.0;stroke-dasharray:7.0,7.0;"/><polygon fill="none" points="390.28,74.02,400.3211,90.119,407.9723,80.8745,390.28,74.02" style="stroke:#181818;stroke-width:1.0;"/></g><!--link SeleniumParser to SeleniumCollector--><g id="link_SeleniumParser_SeleniumCollector"><path codeLine="62" d="M484.83,201.02 C475.13,219.39 468.6449,231.6794 458.9149,250.0994 " fill="none" id="SeleniumParser-to-SeleniumCollector" style="stroke:#181818;stroke-width:1.0;"/><polygon fill="#181818" points="453.31,260.71,459.6493,257.273,458.9149,250.0994,452.5756,253.5364,453.31,260.71" style="stroke:#181818;stroke-width:1.0;"/></g><!--reverse link ParseData to GatlingParser--><g id="link_ParseData_GatlingParser"><path d="M298.1515,85.5427 C276.0215,103.9827 262.23,115.47 240.08,133.93 " fill="none" id="ParseData-backto-GatlingParser" style="stroke:#181818;stroke-width:1.0;stroke-dasharray:7.0,7.0;"/><polygon fill="none" points="311.98,74.02,294.3106,80.9332,301.9924,90.1522,311.98,74.02" style="stroke:#181818;stroke-width:1.0;"/></g><!--link GatlingParser to GatlingCollector--><g id="link_GatlingParser_GatlingCollector"><path codeLine="68" d="M216.87,201.02 C225.83,219.39 231.7467,231.5058 240.7367,249.9258 " fill="none" id="GatlingParser-to-GatlingCollector" style="stroke:#181818;stroke-width:1.0;"/><polygon fill="#181818" points="246,260.71,246.9631,253.5635,240.7367,249.9258,239.7736,257.0723,246,260.71" style="stroke:#181818;stroke-width:1.0;"/></g><!--reverse link ParseData to XParser--><g id="link_ParseData_XParser"><path d="M283.7986,67.5318 C237.5386,85.6418 184.05,107.23 124,134 C118.57,136.42 112.93,139.02 107.32,141.66 " fill="none" id="ParseData-backto-XParser" style="stroke:#181818;stroke-width:1.0;stroke-dasharray:7.0,7.0;"/><polygon fill="none" points="300.56,60.97,281.6114,61.9447,285.9859,73.1189,300.56,60.97" style="stroke:#181818;stroke-width:1.0;"/></g><!--link XParser to XCollector--><g id="link_XParser_XCollector"><path codeLine="74" d="M70.27,201.02 C77.76,219.39 82.5796,231.1781 90.0896,249.5981 " fill="none" id="XParser-to-XCollector" style="stroke:#181818;stroke-width:1.0;"/><polygon fill="#181818" points="94.62,260.71,96.0588,253.6439,90.0896,249.5981,88.6508,256.6642,94.62,260.71" style="stroke:#181818;stroke-width:1.0;"/></g><!--SRC=[dPGnJyCm48Lt_mflG578pbQWGZ0XTSbwCaUnP3kMVK58YFzE76YJSvjKsAFztlTyTt4ktebylArhRy1HPysDQcsj3CHOlMhO1R12Q4SOta2Xt7pwDj0MmuTM-7JO_XAoNzSIX-C78BYy4jz231nkajfwWnOTnHdQ78nZLbNdAzdSjyQWeZQSF7wss4ENDLiqw7HdbrMFG4QxtIXYjQtFLoMNorhB5BFYPXvoLnwo1vpC6AVxLrso7KXgt9lEDEliz6h_e1prlf2JJwSGqvG3nYQ-G8Z8n7w_yojb7HpKBEwidnchVfxvLvurjo0YiwQGusV2Ur-GmfqfPEwLDGNqPiAT_2RI-W40]--></g></svg>